<svg width="100" height="100" viewBox="0 0 100 100" fill="none" xmlns="http://www.w3.org/2000/svg">
<path d="M55.3215 29.8157L53.5538 47.1452C53.2693 50.1641 53.127 53.1832 53.127 56.2024C53.127 61.9588 53.7976 65.461 55.1388 66.7089C56.5206 67.9166 58.0852 68.5204 59.8328 68.5204C63.7341 68.5204 66.0507 66.085 66.7824 61.2141H69.038C67.6968 72.4047 63.206 78 55.5658 78C47.5597 78 43.5567 73.4513 43.5567 64.354C43.5567 59.7651 44.0036 54.049 44.8974 47.2057L47.1529 29.8159H41.118C37.7855 29.8159 35.1846 30.3795 33.3152 31.5067C31.4864 32.5935 29.7795 34.8075 28.1945 38.1485H26C27.3005 33.7206 28.8448 30.2184 30.6328 27.642C32.421 25.0254 34.1279 23.2743 35.7534 22.3888C37.3791 21.4629 39.7972 21 43.0077 21H73V29.8158L55.3215 29.8157Z" fill="white"/>
</svg>
